<?xml version="1.0" encoding="UTF-8" standalone="no"?>
<svg
   xmlns:dc="http://purl.org/dc/elements/1.1/"
   xmlns:cc="http://creativecommons.org/ns#"
   xmlns:rdf="http://www.w3.org/1999/02/22-rdf-syntax-ns#"
   xmlns:svg="http://www.w3.org/2000/svg"
   xmlns="http://www.w3.org/2000/svg"
   xmlns:sodipodi="http://sodipodi.sourceforge.net/DTD/sodipodi-0.dtd"
   xmlns:inkscape="http://www.inkscape.org/namespaces/inkscape"
   version="1.1"
   id="svg2"
   viewBox="0 0 744.09448819 1052.3622047"
   height="297mm"
   width="210mm"
   inkscape:version="0.91 r13725"
   sodipodi:docname="dd.svg">
  <sodipodi:namedview
     pagecolor="#ffffff"
     bordercolor="#666666"
     borderopacity="1"
     objecttolerance="10"
     gridtolerance="10"
     guidetolerance="10"
     inkscape:pageopacity="0"
     inkscape:pageshadow="2"
     inkscape:window-width="706"
     inkscape:window-height="480"
     id="namedview4151"
     showgrid="false"
     inkscape:zoom="0.78014964"
     inkscape:cx="372.04724"
     inkscape:cy="526.1811"
     inkscape:window-x="0"
     inkscape:window-y="0"
     inkscape:window-maximized="1"
     inkscape:current-layer="svg2" />
  <defs
     id="defs4" />
  <metadata
     id="metadata7">
    <rdf:RDF>
      <cc:Work
         rdf:about="">
        <dc:format>image/svg+xml</dc:format>
        <dc:type
           rdf:resource="http://purl.org/dc/dcmitype/StillImage" />
        <dc:title />
      </cc:Work>
    </rdf:RDF>
  </metadata>
  <rect
     style="fill:#f00f0f;fill-opacity:1"
     id="rect4136"
     width="74.285713"
     height="48.57143"
     x="16.09845"
     y="43.581383" />
  <rect
     style="fill:#ffffff;fill-opacity:1"
     id="rect4138"
     width="87.14286"
     height="88.571426"
     x="436.52701"
     y="414.51501" />
  <path
     inkscape:connector-curvature="0"
     style="fill:#ff6cff;fill-opacity:1"
     id="path4694"
     d="M 576.52703,680.2293 448.16857,643.07664 344.79473,727.75286 340.46406,594.19591 227.98792,522.04793 353.66988,476.65786 387.52964,347.39174 469.53603,452.89608 602.93866,445.15319 527.93943,555.74854 Z" />
  <path
     inkscape:connector-curvature="0"
     style="fill:#ffffff;fill-opacity:1"
     id="path4696"
     d="m 469.38416,667.37215 3.40281,-1.67939 0.54567,-3.75522 2.64872,2.71731 3.74004,-0.64147 -1.76581,3.35877 1.76581,3.35877 -3.74004,-0.64146 -2.64872,2.7173 -0.54567,-3.75522 z" />
  <path
     inkscape:connector-curvature="0"
     style="fill:#ffffff;fill-opacity:1"
     id="path4698"
     d="m 452.24129,540.22928 9.8011,73.44812 66.0612,33.56496 -66.82461,32.01811 -11.50814,73.20007 -51.10097,-53.65984 -73.17362,11.67518 35.24247,-65.18171 -33.71565,-65.98442 72.88202,13.37532 z" />
  <path
     inkscape:connector-curvature="0"
     style="fill:#ffffff;fill-opacity:1"
     id="path4700"
     d="m 560.81273,543.08646 -71.71369,2.59765 -38.51571,60.54867 -24.63126,-67.40106 -69.48722,-17.92004 56.49074,-44.2538 -4.42976,-71.62387 59.54446,40.05071 66.74948,-26.34594 -19.69024,69.00649 z" />
  <path
     inkscape:connector-curvature="0"
     style="fill:#ffffff;fill-opacity:1"
     id="path4702"
     d="M 625.09846,800.2293 576.51735,678.2141 448.46277,649.06176 549.49374,565.15361 537.64821,434.3579 l 111.02167,70.15712 120.73365,-51.68387 -32.4158,127.26763 86.46303,98.85333 -131.05574,8.49861 z" />
  <path
     inkscape:connector-curvature="0"
     style="fill:#22ff78;fill-opacity:1"
     id="path4704"
     d="m 469.38415,724.51501 -1.01584,32.23861 25.98151,19.11338 -30.97465,8.99616 -10.14918,30.61624 -18.12755,-26.67868 -32.25405,-0.1915 19.77121,-25.48449 -9.78491,-30.7346 30.34683,10.9284 z" />
  <path
     inkscape:connector-curvature="0"
     style="fill:#ff6cff;fill-opacity:1"
     id="path4706"
     d="M 259.38416,600.22931 238.16257,784.82125 248.58786,486.51771 66.472662,523.37683 353.39777,441.111 262.06598,279.29925 428.97017,526.75971 554.63921,389.89543 370.86656,625.10023 539.86609,702.32521 Z" />
  <path
     inkscape:connector-curvature="0"
     style="fill:#a96cff;fill-opacity:0.40804599"
     id="path4708"
     d="m 133.66988,553.08642 110.3479,-96.31506 -62.42701,-132.49952 125.70045,75.1841 106.72352,-100.31622 -32.66076,142.7814 128.38578,70.50068 -145.88591,13.05966 -27.37674,143.88803 -57.5017,-134.71008 z" />
  <path
     inkscape:connector-curvature="0"
     style="fill:#a96cff;fill-opacity:0.40804599"
     id="path4710"
     d="M 586.52702,373.08643 422.23539,534.23321 532.24988,736.36394 328.22129,629.9104 169.97989,797.00224 208.17491,570.06356 0.36185,471.20126 227.99627,437.39898 257.80214,209.20689 360.29292,415.2546 Z" />
</svg>
